<svg id="visual" viewBox="0 0 900 600" width="900" height="600" xmlns="http://www.w3.org/2000/svg" xmlns:xlink="http://www.w3.org/1999/xlink" version="1.1"><g stroke-width="1" stroke-linejoin="bevel"><path d="M527.3 283L598.9 323L585.9 230Z" fill="#023053" stroke="#023053"></path><path d="M598.9 323L724.4 325L585.9 230Z" fill="#032a46" stroke="#032a46"></path><path d="M724.4 325L646.9 119L585.9 230Z" fill="#023053" stroke="#023053"></path><path d="M585.9 230L443.7 141L527.3 283Z" fill="#154c8a" stroke="#154c8a"></path><path d="M527.3 283L462.3 420L598.9 323Z" fill="#0c457c" stroke="#0c457c"></path><path d="M598.9 323L673.9 500L724.4 325Z" fill="#0c457c" stroke="#0c457c"></path><path d="M646.9 119L537.3 101L585.9 230Z" fill="#3660b4" stroke="#3660b4"></path><path d="M527.3 283L378.7 413L462.3 420Z" fill="#053e6e" stroke="#053e6e"></path><path d="M537.3 101L443.7 141L585.9 230Z" fill="#032a46" stroke="#032a46"></path><path d="M443.7 141L347.7 238L527.3 283Z" fill="#0c457c" stroke="#0c457c"></path><path d="M347.7 238L378.7 413L527.3 283Z" fill="#052339" stroke="#052339"></path><path d="M546.3 529L598.9 323L462.3 420Z" fill="#2a59a6" stroke="#2a59a6"></path><path d="M546.3 529L673.9 500L598.9 323Z" fill="#023760" stroke="#023760"></path><path d="M900 332L821.4 265L724.4 325Z" fill="#061c2d" stroke="#061c2d"></path><path d="M724.4 325L821.4 265L646.9 119Z" fill="#052339" stroke="#052339"></path><path d="M673.9 500L714.4 489L724.4 325Z" fill="#023053" stroke="#023053"></path><path d="M470.3 600L546.3 529L462.3 420Z" fill="#0c457c" stroke="#0c457c"></path><path d="M821.4 265L753.4 73L646.9 119Z" fill="#3660b4" stroke="#3660b4"></path><path d="M646.9 119L591.9 0L537.3 101Z" fill="#154c8a" stroke="#154c8a"></path><path d="M753.4 73L591.9 0L646.9 119Z" fill="#061c2d" stroke="#061c2d"></path><path d="M537.3 101L466.3 0L443.7 141Z" fill="#154c8a" stroke="#154c8a"></path><path d="M275.1 352L343.7 442L378.7 413Z" fill="#053e6e" stroke="#053e6e"></path><path d="M378.7 413L343.7 442L462.3 420Z" fill="#023053" stroke="#023053"></path><path d="M591.9 0L466.3 0L537.3 101Z" fill="#2a59a6" stroke="#2a59a6"></path><path d="M272.1 76L224.1 188L347.7 238Z" fill="#154c8a" stroke="#154c8a"></path><path d="M347.7 238L275.1 352L378.7 413Z" fill="#053e6e" stroke="#053e6e"></path><path d="M224.1 188L275.1 352L347.7 238Z" fill="#052339" stroke="#052339"></path><path d="M466.3 0L423.7 0L443.7 141Z" fill="#061c2d" stroke="#061c2d"></path><path d="M900 433L900 332L724.4 325Z" fill="#023053" stroke="#023053"></path><path d="M821.4 265L900 124L753.4 73Z" fill="#2a59a6" stroke="#2a59a6"></path><path d="M900 332L900 221L821.4 265Z" fill="#032a46" stroke="#032a46"></path><path d="M380.7 600L470.3 600L462.3 420Z" fill="#061c2d" stroke="#061c2d"></path><path d="M546.3 529L684.9 600L673.9 500Z" fill="#1f5398" stroke="#1f5398"></path><path d="M673.9 500L684.9 600L714.4 489Z" fill="#023760" stroke="#023760"></path><path d="M470.3 600L684.9 600L546.3 529Z" fill="#023053" stroke="#023053"></path><path d="M714.4 489L900 433L724.4 325Z" fill="#061c2d" stroke="#061c2d"></path><path d="M275.1 352L264.1 417L343.7 442Z" fill="#1f5398" stroke="#1f5398"></path><path d="M343.7 442L380.7 600L462.3 420Z" fill="#2a59a6" stroke="#2a59a6"></path><path d="M772.4 600L900 433L714.4 489Z" fill="#2a59a6" stroke="#2a59a6"></path><path d="M900 221L900 124L821.4 265Z" fill="#032a46" stroke="#032a46"></path><path d="M753.4 73L807.4 0L591.9 0Z" fill="#3660b4" stroke="#3660b4"></path><path d="M900 124L807.4 0L753.4 73Z" fill="#3660b4" stroke="#3660b4"></path><path d="M272.1 76L347.7 238L443.7 141Z" fill="#1f5398" stroke="#1f5398"></path><path d="M275.1 352L87.6 394L264.1 417Z" fill="#053e6e" stroke="#053e6e"></path><path d="M423.7 0L272.1 76L443.7 141Z" fill="#052339" stroke="#052339"></path><path d="M684.9 600L772.4 600L714.4 489Z" fill="#023760" stroke="#023760"></path><path d="M195.1 600L380.7 600L343.7 442Z" fill="#0c457c" stroke="#0c457c"></path><path d="M423.7 0L296.1 0L272.1 76Z" fill="#1f5398" stroke="#1f5398"></path><path d="M135.6 78L105.6 224L224.1 188Z" fill="#061c2d" stroke="#061c2d"></path><path d="M900 124L900 0L807.4 0Z" fill="#032a46" stroke="#032a46"></path><path d="M772.4 600L900 600L900 433Z" fill="#052339" stroke="#052339"></path><path d="M135.6 78L224.1 188L272.1 76Z" fill="#3660b4" stroke="#3660b4"></path><path d="M224.1 188L105.6 224L275.1 352Z" fill="#2a59a6" stroke="#2a59a6"></path><path d="M264.1 417L195.1 600L343.7 442Z" fill="#061c2d" stroke="#061c2d"></path><path d="M114.6 0L135.6 78L272.1 76Z" fill="#053e6e" stroke="#053e6e"></path><path d="M69.6 435L195.1 600L264.1 417Z" fill="#3660b4" stroke="#3660b4"></path><path d="M105.6 224L87.6 394L275.1 352Z" fill="#023760" stroke="#023760"></path><path d="M0 364L69.6 435L87.6 394Z" fill="#023053" stroke="#023053"></path><path d="M87.6 394L69.6 435L264.1 417Z" fill="#154c8a" stroke="#154c8a"></path><path d="M0 67L0 254L105.6 224Z" fill="#052339" stroke="#052339"></path><path d="M105.6 224L0 254L87.6 394Z" fill="#154c8a" stroke="#154c8a"></path><path d="M296.1 0L114.6 0L272.1 76Z" fill="#023760" stroke="#023760"></path><path d="M69.6 435L119.6 600L195.1 600Z" fill="#061c2d" stroke="#061c2d"></path><path d="M0 67L105.6 224L135.6 78Z" fill="#052339" stroke="#052339"></path><path d="M69.6 435L0 500L119.6 600Z" fill="#0c457c" stroke="#0c457c"></path><path d="M0 254L0 364L87.6 394Z" fill="#023053" stroke="#023053"></path><path d="M114.6 0L0 67L135.6 78Z" fill="#032a46" stroke="#032a46"></path><path d="M0 364L0 500L69.6 435Z" fill="#023053" stroke="#023053"></path><path d="M114.6 0L0 0L0 67Z" fill="#023053" stroke="#023053"></path><path d="M0 500L0 600L119.6 600Z" fill="#2a59a6" stroke="#2a59a6"></path></g></svg>